PathFileType	4	(X/Y/Z)	C:\Users\Basilio\Documents\Thesis Gigler\squatting_fais\c3dfiles\039\SJ_pre5\markers_experimental.trc
DataRate	CameraRate	NumFrames	NumMarkers	Units	OrigDataRate	OrigDataStartFrame	OrigNumFrames
200.000000	200.000000	4	61	mm	200.000000	611	1630
Frame#	Time	FHD			LBHD			RBHD			C7			T10			CLAV			LSHO			LUUPA			LMUPA			LDUPA			LLEP			LMEP			LRAD			LUL			LRFIN			RSHO			RUPA1			RMUPA			RDUPA			RLEP			RMEP			RRAD			RUL			RUFIN			LASI			RASI			USACR			LSACR			RSACR			LTHI1			LTHI2			LTHI3			LTHI4			LLFC			LMFC			LTIB1			LTIB2			LTIB3			LTIB4			LLMAL			LMMAL			LHEE			LMT1			LMT2			LMT5			RTHI			RTHI2			RTHI3			RTHI4			RLFC			RMFC			RTIB1			RTIB2			RTIB3			RTIB4			RLMAL			RMMAL			RHEE			RMT1			RMT2			RMT5			
		X1	Y1	Z1	X2	Y2	Z2	X3	Y3	Z3	X4	Y4	Z4	X5	Y5	Z5	X6	Y6	Z6	X7	Y7	Z7	X8	Y8	Z8	X9	Y9	Z9	X10	Y10	Z10	X11	Y11	Z11	X12	Y12	Z12	X13	Y13	Z13	X14	Y14	Z14	X15	Y15	Z15	X16	Y16	Z16	X17	Y17	Z17	X18	Y18	Z18	X19	Y19	Z19	X20	Y20	Z20	X21	Y21	Z21	X22	Y22	Z22	X23	Y23	Z23	X24	Y24	Z24	X25	Y25	Z25	X26	Y26	Z26	X27	Y27	Z27	X28	Y28	Z28	X29	Y29	Z29	X30	Y30	Z30	X31	Y31	Z31	X32	Y32	Z32	X33	Y33	Z33	X34	Y34	Z34	X35	Y35	Z35	X36	Y36	Z36	X37	Y37	Z37	X38	Y38	Z38	X39	Y39	Z39	X40	Y40	Z40	X41	Y41	Z41	X42	Y42	Z42	X43	Y43	Z43	X44	Y44	Z44	X45	Y45	Z45	X46	Y46	Z46	X47	Y47	Z47	X48	Y48	Z48	X49	Y49	Z49	X50	Y50	Z50	X51	Y51	Z51	X52	Y52	Z52	X53	Y53	Z53	X54	Y54	Z54	X55	Y55	Z55	X56	Y56	Z56	X57	Y57	Z57	X58	Y58	Z58	X59	Y59	Z59	X60	Y60	Z60	X61	Y61	Z61	

612	3.055	161.6404418945313	1199.00830078125	-807.8782348632815	11.41976737976074	1183.702392578125	-938.2459716796877	29.14965820312501	1187.300048828125	-797.094665527344	-54.165584564209	1116.41796875	-877.625183105469	-319.9207763671876	966.8465576171877	-881.8543701171877	-11.1817102432251	961.8024902343752	-876.0547485351565	9.209801673889162	1029.439331054688	-1058.625732421875	-113.8867111206055	1006.062805175781	-1244.201416015625	-119.7950286865235	956.6870117187502	-1245.015869140625	-152.8856658935547	972.129821777344	-1292.325805664063	-202.970932006836	929.6272583007815	-1324.842407226563	-263.2587585449219	993.2554321289065	-1303.286254882813	-421.2637329101564	829.8128662109377	-1154.381225585938	-395.7260131835939	767.2858886718751	-1188.537841796875	-390.5440063476564	818.376647949219	-1095.077880859375	0.6316213011741639	1015.929992675781	-689.8484497070314	-146.9573822021485	1051.315307617188	-537.0549316406251	-159.8729095458985	1004.770141601563	-521.7791748046876	-195.7012176513672	1039.068237304688	-487.634979248047	-248.8978118896485	1000.146240234375	-455.2621459960939	-302.4610595703126	1062.425048828125	-495.8011779785157	-409.5413513183595	877.1988525390627	-678.4517211914064	-421.1750793457032	825.8992309570315	-623.9340820312501	-370.4779663085938	833.230407714844	-723.9891967773439	-353.1260375976563	773.799499511719	-1014.613525390625	-369.1085815429688	739.7625732421876	-797.096862792969	-459.5277099609376	914.1948242187502	-884.0588989257815	-489.2617797851564	900.7265625000002	-913.2642211914065	-493.2675781250001	895.3199462890627	-856.0657958984377	-323.1351928710938	624.7633056640626	-1104.121948242188	-241.0196075439454	599.2617797851564	-1109.859741210938	-207.7491302490235	631.8482055664064	-1099.163208007813	-219.9723205566407	541.7635498046876	-1098.463134765625	-140.2987518310547	476.4241027832032	-1086.669677734375	-108.0172271728516	455.3192138671876	-981.268737792969	-109.5942535400391	334.6221618652344	-1074.422973632813	-186.1072235107422	321.2417602539063	-1116.364013671875	-151.5999908447266	304.0906066894532	-1097.166870117188	-180.4737701416016	228.4548645019532	-1060.15283203125	-305.5197448730469	98.817008972168	-1094.875366210938	-283.4217224121094	87.8487014770508	-1009.456970214844	-380.3982849121094	42.46699523925782	-1055.706787109375	-145.7818145751953	53.51689910888673	-1069.358154296875	-157.884262084961	55.09833145141603	-1111.130493164063	-207.2007598876954	33.35763549804688	-1157.829223632813	-329.9604187011719	638.3113403320314	-689.0785522460939	-263.6071166992188	636.0817260742189	-679.2875976562501	-243.8764801025391	662.0783691406251	-689.8931884765626	-219.2641906738282	565.5476074218751	-667.5045166015626	-152.992919921875	465.2535400390626	-677.1082763671876	-114.7108764648438	462.1173095703126	-782.917663574219	-162.7366027832032	270.3533935546876	-691.6804809570314	-262.8302001953126	231.5640716552735	-683.7473754882814	-220.4133605957032	211.0300750732422	-685.3589477539064	-217.0376129150391	158.4419860839844	-714.0520629882814	-307.7967224121094	90.55761718750001	-693.9453735351564	-273.0378417968751	95.33357238769533	-778.016296386719	-378.0727844238282	42.01241302490235	-743.2890014648439	-144.76806640625	49.65163040161134	-718.9887695312501	-154.4172668457032	57.53234100341798	-674.4404907226564	-212.0326538085938	32.78986740112305	-627.1764526367189	
613	3.06	161.9947967529297	1197.10107421875	-807.739929199219	10.84819316864014	1182.611328125	-937.8023071289065	29.33612823486329	1186.094360351563	-797.296081542969	-53.96116638183595	1115.372680664063	-877.6299438476565	-319.8644714355469	966.1667480468752	-881.8623657226565	-10.89662837982178	960.4993896484377	-876.1301879882815	9.381095886230471	1028.275756835938	-1058.61279296875	-113.4066619873047	1005.339294433594	-1244.541870117188	-120.4327850341797	955.5247802734377	-1244.4248046875	-152.7342224121094	971.2846679687502	-1292.49462890625	-203.0353240966797	928.671569824219	-1324.890014648438	-263.0877685546876	992.4218750000002	-1303.331665039063	-421.6340332031251	829.294616699219	-1154.400634765625	-396.035858154297	766.7328491210939	-1188.41259765625	-390.8072814941407	818.029724121094	-1095.040771484375	0.7334188818931581	1014.429382324219	-689.6234130859376	-146.4986114501953	1050.361572265625	-536.9241943359376	-159.6213531494141	1003.81005859375	-521.8231201171876	-195.3314666748047	1038.072509765625	-487.5580444335939	-248.3971710205079	999.6577758789065	-454.902801513672	-302.0980529785157	1061.597778320313	-495.762664794922	-409.7867126464845	876.8304443359377	-678.3400268554689	-421.4389953613282	825.4263305664065	-623.8560791015626	-370.7591857910157	832.833190917969	-723.9243164062501	-353.8144226074219	772.695007324219	-1014.278869628906	-370.3154602050782	738.7755126953126	-796.7404785156252	-459.6570129394532	913.669860839844	-883.924987792969	-489.4644165039064	900.318298339844	-913.162536621094	-493.6529541015626	894.895935058594	-855.893493652344	-323.2657470703126	624.5495605468751	-1104.044555664063	-240.7696533203126	598.7304077148439	-1109.73583984375	-207.9121551513672	631.7415161132814	-1099.090209960938	-219.9784393310547	541.6470947265626	-1098.396118164063	-140.2895050048828	476.403289794922	-1086.647705078125	-107.9952545166016	455.3424072265626	-981.2080078125002	-109.5435562133789	334.6246643066407	-1074.368286132813	-186.0682678222657	321.1781616210938	-1116.277587890625	-151.5588836669922	304.2522888183594	-1097.059692382813	-180.4012603759766	228.4679260253907	-1060.11767578125	-305.5051269531251	98.8432312011719	-1094.86865234375	-283.4202270507813	87.82748413085939	-1009.440795898438	-380.3649597167969	42.45571899414063	-1055.703857421875	-145.7996215820313	53.41837310791017	-1069.401123046875	-157.9153900146485	55.07055282592775	-1111.13232421875	-207.1771240234376	33.40510940551759	-1157.809814453125	-329.9971008300782	638.1281127929689	-689.0801391601564	-263.7358093261719	635.9700927734376	-679.3461303710939	-243.9907531738282	661.9552612304689	-689.9332885742189	-219.3757781982422	565.4293823242189	-667.5454711914064	-152.9161071777344	465.2696228027345	-677.1332397460939	-114.6683731079102	462.0793457031251	-783.0178222656252	-162.7005462646485	270.3719787597657	-691.6516723632814	-262.8427734375001	231.5760803222657	-683.8111572265626	-220.4070129394532	211.0093383789063	-685.3685913085939	-217.0106964111329	158.4400177001953	-714.0564575195314	-307.9897460937501	90.85426330566408	-693.9220581054689	-273.0477600097657	95.33123779296876	-778.0286865234377	-378.0719909667969	42.02695846557618	-743.2920532226564	-144.7926635742188	49.59798812866212	-718.9816284179689	-154.5091094970703	57.37763977050783	-674.5214233398439	-212.0445098876954	32.81483459472657	-627.1776733398439	
614	3.065	162.36572265625	1195.735595703125	-807.567810058594	11.6501693725586	1181.408569335938	-938.010192871094	29.57266235351563	1184.72119140625	-797.3836059570315	-53.61743545532228	1114.073608398438	-877.5872802734377	-319.8497009277344	965.539001464844	-881.7733154296877	-11.11001014709473	959.2814941406252	-876.146423339844	9.218400955200197	1027.5439453125	-1058.735595703125	-113.2948760986328	1004.3466796875	-1244.452880859375	-120.0910949707032	954.731384277344	-1244.687744140625	-152.7055206298828	970.1533813476565	-1292.40234375	-202.936508178711	927.9566650390627	-1324.90380859375	-262.9888610839844	991.772888183594	-1303.396728515625	-421.7857666015626	828.822204589844	-1154.503173828125	-396.329315185547	766.2872924804689	-1188.3115234375	-391.1049804687501	817.6152343750002	-1095.005737304688	1.013646245002747	1013.281494140625	-689.8273315429689	-146.0768432617188	1049.350341796875	-537.0695190429689	-159.5313720703125	1002.572326660156	-521.6812133789064	-195.0855560302735	1037.213745117188	-487.471649169922	-248.1340942382813	998.699890136719	-454.7928466796876	-301.6583862304688	1060.883178710938	-495.7560424804689	-410.0485839843751	876.4251098632815	-678.3044433593751	-421.7267150878907	824.8394775390627	-623.7973022460939	-370.8408813476563	832.2500000000002	-723.7581787109376	-353.8774719238282	772.6582031250002	-1014.540161132813	-370.5279541015626	738.0856933593751	-797.0740356445315	-459.8503723144532	913.2126464843752	-883.7760009765627	-489.5437011718751	900.0057373046877	-913.1240844726565	-493.7545471191407	894.4106445312502	-855.862731933594	-323.3862609863282	624.3806762695314	-1104.077880859375	-241.1914062500001	598.9520874023439	-1109.743408203125	-207.9810028076172	631.5869750976564	-1099.001220703125	-219.9515533447266	541.5444946289064	-1098.404663085938	-140.2223358154297	476.3634033203126	-1086.594604492188	-107.9992218017578	455.2642517089845	-981.2073364257815	-109.2175979614258	334.3245544433594	-1074.236328125	-186.0413360595703	321.2116394042969	-1116.240356445313	-151.4939727783203	304.2044677734376	-1097.02734375	-180.4062042236328	228.4009857177735	-1060.063232421875	-305.5679321289063	98.810417175293	-1094.854248046875	-283.4133911132813	87.81008911132814	-1009.439575195313	-380.3003845214844	42.4333610534668	-1055.694091796875	-145.730712890625	53.60706329345705	-1069.313232421875	-157.9154205322266	55.07032012939455	-1111.1328125	-207.2059326171876	33.37802886962891	-1157.80712890625	-330.1399536132813	637.9055786132814	-689.1137084960939	-263.8547973632813	635.7734375000001	-679.3993530273439	-244.1682586669922	661.7318115234376	-690.0251464843751	-219.4384765625001	565.3198852539064	-667.5515747070314	-152.938232421875	465.1860961914064	-677.1753540039064	-114.6887283325196	462.0440673828126	-783.0800781250002	-162.6629028320313	270.3588867187501	-691.7437744140626	-262.7985229492188	231.5614013671876	-683.8430786132814	-220.3966217041016	211.0332031250001	-685.4089965820314	-217.0093688964844	158.4315032958985	-714.0645751953126	-307.9775085449219	90.81534576416017	-693.9523925781251	-273.0359191894532	95.32884979248048	-778.0382080078127	-378.0321044921876	41.96368408203126	-743.2659301757814	-144.7931823730469	49.62666702270509	-718.9708862304689	-154.4739990234375	57.4528045654297	-674.5101928710939	-212.1304626464844	32.86841201782227	-627.1588134765626	
615	3.07	162.591781616211	1194.410766601563	-807.583190917969	11.89682769775391	1180.043212890625	-937.9634399414065	29.75380325317384	1183.65087890625	-797.2598266601565	-53.37889480590822	1113.022094726563	-877.5416259765627	-320.1181945800782	964.7374267578127	-881.9766845703127	-11.20417308807373	958.0485839843752	-876.1358642578127	9.919631004333498	1025.605224609375	-1058.65478515625	-113.3061065673828	1002.871826171875	-1244.264526367188	-119.5895233154297	953.371276855469	-1244.984252929688	-152.5973815917969	969.1903076171877	-1292.328247070313	-202.8979492187501	926.955749511719	-1324.862182617188	-263.0365600585938	991.1916503906252	-1303.303344726563	-421.9052734375001	828.4671630859377	-1154.4580078125	-396.6556396484376	765.7570800781251	-1188.320922851563	-391.2660217285157	817.256530761719	-1094.942138671875	1.087934494018555	1011.954284667969	-689.7857666015626	-145.9109802246094	1048.159057617188	-536.9320678710939	-159.2328033447266	1001.836059570313	-521.7249755859376	-194.6882781982422	1036.22021484375	-487.5364074707032	-247.9021911621094	997.524353027344	-455.1192932128907	-301.1699523925782	1060.036865234375	-495.5546264648439	-410.272186279297	876.039733886719	-678.2477416992189	-421.9678039550782	824.3986816406252	-623.7500000000001	-371.0712890625001	831.9541015625002	-723.7803344726564	-354.7012939453126	771.574157714844	-1014.501403808594	-371.8745117187501	736.8973388671876	-797.0505371093752	-460.1365051269532	912.5692138671877	-883.6910400390627	-489.701385498047	899.6520996093752	-913.129333496094	-493.9943237304689	894.0404052734377	-855.9299926757815	-323.3753967285157	624.2213134765626	-1104.091552734375	-241.3138427734376	598.8250122070314	-1109.672607421875	-208.0992889404297	631.4172973632814	-1098.814575195313	-219.9513092041016	541.5185546875001	-1098.361938476563	-140.1575164794922	476.2823486328126	-1086.505004882813	-107.8664932250977	455.2251281738282	-981.1121826171877	-109.1677703857422	334.2794494628907	-1074.160766601563	-185.9813232421875	321.2114257812501	-1116.163330078125	-151.5139617919922	304.0752258300782	-1096.995361328125	-180.3678894042969	228.4395599365235	-1060.011840820313	-305.5493164062501	98.84233093261722	-1094.839965820313	-283.3854980468751	87.83642578125001	-1009.423156738281	-380.3370056152344	42.47167968750001	-1055.684204101563	-145.8113403320313	53.47252655029298	-1069.40673828125	-157.8120422363282	55.09963226318361	-1111.074096679688	-207.2143554687501	33.39554595947266	-1157.814575195313	-330.2979125976563	637.6444702148439	-689.0829467773439	-264.0262756347657	635.5894165039064	-679.4599609375001	-244.4131622314454	661.5858154296876	-690.0125732421876	-219.4784088134766	565.1546630859376	-667.6314086914064	-152.8865814208985	465.174285888672	-677.2414550781251	-114.7578964233399	462.0102844238282	-783.1570434570315	-162.6605529785157	270.3456115722657	-691.7686767578126	-262.8101806640626	231.5845642089844	-683.8531494140626	-220.3276977539063	211.0693664550782	-685.4350585937501	-216.997543334961	158.412338256836	-714.0726928710939	-307.7868957519532	90.5650100708008	-693.9412231445314	-273.0493774414063	95.32507324218751	-778.0489501953127	-378.0826110839844	41.99602508544923	-743.3025512695314	-144.7896728515625	49.59291076660158	-719.0073852539064	-154.496826171875	57.40521621704103	-674.5180053710939	-212.1230163574219	32.86012268066407	-627.1793823242189	
